<svg width="40" height="40" viewBox="0 0 40 40" fill="none" xmlns="http://www.w3.org/2000/svg">
<rect width="40" height="40" rx="20" fill="#FEF0E7"/>
<path d="M29.5116 13.0467L27.108 12.0366L26.1464 9.5124L24.888 10.8333C23.4084 9.9114 21.7272 9.42 20 9.42C14.7068 9.42 10.4 13.9421 10.4 19.5C10.4 25.0579 14.7068 29.58 20 29.58C25.2932 29.58 29.6 25.0579 29.6 19.5C29.6 17.6864 29.132 15.9212 28.254 14.3676L29.5116 13.0467ZM26.492 12.6834L28.088 13.3537L27.1032 14.3873L25.508 13.7166L24.8696 12.0412L25.854 11.0072L26.492 12.6834ZM28.8 19.5C28.8 24.595 24.8524 28.74 20 28.74C15.1476 28.74 11.2 24.595 11.2 19.5C11.2 14.405 15.1476 10.26 20 10.26C21.5152 10.26 22.994 10.6678 24.3068 11.4436L23.9304 11.8388L24.7304 13.9392L24.2268 14.468C23.0984 13.4209 21.6208 12.78 20 12.78C16.4712 12.78 13.6 15.7948 13.6 19.5C13.6 23.2052 16.4712 26.22 20 26.22C23.5288 26.22 26.4 23.2052 26.4 19.5C26.4 17.7982 25.7896 16.2467 24.7928 15.0614L25.2964 14.5327L27.2968 15.3727L27.6732 14.9774C28.4116 16.3563 28.8 17.909 28.8 19.5ZM22.4 19.5C22.4 20.8898 21.3236 22.02 20 22.02C18.6764 22.02 17.6 20.8898 17.6 19.5C17.6 18.1102 18.6764 16.98 20 16.98C20.5176 16.98 20.996 17.1547 21.3884 17.4483L20.2048 18.6911C20.1388 18.673 20.0712 18.66 20 18.66C19.5584 18.66 19.2 19.0359 19.2 19.5C19.2 19.9641 19.5584 20.34 20 20.34C20.4416 20.34 20.8 19.9641 20.8 19.5C20.8 19.4252 20.7876 19.3543 20.7704 19.285L21.954 18.0422C22.2336 18.4542 22.4 18.9565 22.4 19.5ZM21.9592 16.849C21.4168 16.4063 20.7384 16.14 20 16.14C18.2356 16.14 16.8 17.6474 16.8 19.5C16.8 21.3526 18.2356 22.86 20 22.86C21.7644 22.86 23.2 21.3526 23.2 19.5C23.2 18.7247 22.9464 18.0124 22.5248 17.4428L24.2276 15.6549C25.08 16.6873 25.6 18.0296 25.6 19.5C25.6 22.7424 23.088 25.38 20 25.38C16.912 25.38 14.4 22.7424 14.4 19.5C14.4 16.2576 16.912 13.62 20 13.62C21.4 13.62 22.6788 14.166 23.6616 15.0614L21.9592 16.849Z" fill="#FD6B22"/>
</svg>
